<?xml version="1.0" encoding="iso-8859-1"?>
<!-- Generator: Adobe Illustrator 19.0.0, SVG Export Plug-In . SVG Version: 6.00 Build 0)  -->
<svg version="1.1" id="Capa_1" xmlns="http://www.w3.org/2000/svg" xmlns:xlink="http://www.w3.org/1999/xlink" x="0px" y="0px"
	 viewBox="0 0 511.999 511.999" style="enable-background:new 0 0 511.999 511.999;" xml:space="preserve">
<path style="fill:#1D304A;" d="M509.303,258.696c0,24.586-3.505,48.345-10.039,70.822c-1.055,3.66-2.202,7.289-3.422,10.877
	c-3.846,11.311-8.478,22.249-13.813,32.774c-6.038,11.9-12.986,23.252-20.771,33.974c-2.13,2.947-4.322,5.852-6.586,8.705
	c-12.51,15.788-26.85,30.055-42.72,42.462c-31.441,24.607-68.847,41.945-109.696,49.472c-14.991,2.771-30.458,4.218-46.256,4.218
	c-139.896,0-253.304-113.408-253.304-253.304S116.104,5.392,256,5.392c134.241,0,244.092,104.423,252.745,236.482
	C509.117,247.437,509.303,253.04,509.303,258.696z"/>
<g>
	<path style="fill:#E2BD1E;" d="M482.029,373.168c-6.038,11.9-12.986,23.252-20.771,33.974c-2.13,2.947-4.322,5.852-6.586,8.705
		c-12.51,15.788-26.85,30.055-42.72,42.462c-31.441,24.607-68.847,41.945-109.696,49.472c-23.263-6.689-46.184-15.87-68.433-27.626
		C111.72,415.641,42.346,290.467,43.152,161.303c0.114-17.618,9.626-30.758,22.404-37.675c18.61-10.091,44.168-6.989,57.836,14.692
		c46.66,73.934,112.705,137.022,195.53,180.797C371.403,346.845,426.488,364.649,482.029,373.168z"/>
	<path style="fill:#E2BD1E;" d="M509.303,258.696c0,28.587-4.735,56.068-13.461,81.698c-9.398,27.605-23.428,53.07-41.17,75.453
		c-39.619,6.4-81.005,6.172-122.733-1.634C196.189,388.811,92.81,289.857,55.259,166.266c-5.118-16.863,0.072-32.226,10.225-42.627
		c14.774-15.157,40.105-19.778,59.594-3.122c66.49,56.761,148.271,97.413,240.359,114.659c48.438,9.057,96.566,11.052,143.308,6.7
		C509.117,247.437,509.303,253.04,509.303,258.696z"/>
</g>
<g>
	<path style="fill:#FCD82B;" d="M509.303,258.696c0,28.587-4.735,56.068-13.461,81.698c-1.499,0.538-3.009,1.075-4.528,1.582
		c-52.522,18.052-110.285,23.159-168.773,12.21C196.458,330.593,100.43,238.69,65.557,123.886c-0.021-0.083-0.052-0.165-0.072-0.248
		c11.59-11.89,29.683-17.297,46.349-11.032c4.58,1.727,9.047,4.322,13.244,7.909c10.918,9.326,22.249,18.207,33.974,26.623
		c59.656,42.855,129.423,73.623,206.386,88.036c32.95,6.162,65.756,9.057,98.085,8.902c8.809-0.031,17.587-0.3,26.323-0.796
		c6.327-0.352,12.624-0.817,18.9-1.406C509.117,247.437,509.303,253.04,509.303,258.696z"/>
	<path style="fill:#FCD82B;" d="M482.029,373.168c-6.038,11.9-12.986,23.252-20.771,33.974c-2.13,2.947-4.322,5.852-6.586,8.705
		c-12.51,15.788-26.85,30.055-42.72,42.462c-16.015,0.693-32.144,0.227-48.252-1.437c-41.17-4.239-82.215-16.304-121.038-36.817
		C129.244,360.121,64.802,243.859,65.557,123.887v-0.258c10.711-5.81,23.728-7.248,35.452-3.288
		c8.643,2.926,16.584,8.778,22.384,17.979c46.66,73.934,112.705,137.022,195.53,180.797c38.564,20.378,78.534,35.39,119.053,45.295
		C452.605,367.999,467.296,370.904,482.029,373.168z"/>
</g>
<path style="fill:#E2BD1E;" d="M482.029,373.168c-6.038,11.9-12.986,23.252-20.771,33.974c-2.13,2.947-4.322,5.852-6.586,8.705
	c-12.51,15.788-26.85,30.055-42.72,42.462c-16.015,0.693-32.144,0.227-48.252-1.437l66.221-54.362l8.054-38.099
	C452.605,367.999,467.296,370.904,482.029,373.168z"/>
<path style="fill:#FFE36E;" d="M482.029,373.168c-6.038,11.9-12.986,23.252-20.771,33.974c-10.67-1.127-21.112-2.678-31.337-4.632
	C206.652,360.162,88.509,132.84,88.509,132.84l12.5-12.5c8.643,2.926,16.584,8.778,22.384,17.979
	c46.66,73.934,112.705,137.022,195.53,180.797c38.564,20.378,78.534,35.39,119.053,45.295
	C452.605,367.999,467.296,370.904,482.029,373.168z"/>
<path style="fill:#4AC688;" d="M85.161,74.135c12.207,28.083,38.236,64.188,38.236,64.188l-56.21,16.095l-24.032,6.884
	c-2.532-45.413,9.762-73.092-1.044-144.894C40.86,8.049,47.255,0.476,55.71,0.309l14.37-0.306
	c9.069-0.197,15.921,8.119,14.025,16.985C80.667,33.07,77.717,57.017,85.161,74.135z"/>
<path style="fill:#32A066;" d="M55.71,0.309c0,0,8.493,106.673,11.478,154.109l-24.032,6.884
	c-2.532-45.413,9.762-73.092-1.044-144.894C40.86,8.049,47.255,0.476,55.71,0.309z"/>
<path style="fill:#E2BD1E;" d="M509.303,258.696c0,28.587-4.735,56.068-13.461,81.698c-1.499,0.538-35.68,18.018-37.199,18.524
	l17.07-32.533l8.778-51.2l-20.967-31.108c15.188-0.062,30.283-0.806,45.222-2.202C509.117,247.437,509.303,253.04,509.303,258.696z"
	/>
<path style="fill:#FCD82B;" d="M482.029,373.168c-6.038,11.9-12.986,23.252-20.771,33.974l-31.337-4.632l8.054-38.099
	L482.029,373.168z"/>
<path style="fill:#E2BD1E;" d="M489.845,243.28l-5.356,31.906c0,0-264.821,10.401-372.656-162.58
	c4.58,1.727,9.047,4.322,13.244,7.909c10.918,9.326,22.249,18.207,33.974,26.623c59.656,42.855,129.423,73.623,206.386,88.036
	c32.95,6.162,65.756,9.057,98.085,8.902C472.331,244.045,481.109,243.777,489.845,243.28z"/>
<g>
</g>
<g>
</g>
<g>
</g>
<g>
</g>
<g>
</g>
<g>
</g>
<g>
</g>
<g>
</g>
<g>
</g>
<g>
</g>
<g>
</g>
<g>
</g>
<g>
</g>
<g>
</g>
<g>
</g>
</svg>
